<?xml version="1.0" encoding="utf-8"?>
<!-- Generator: Adobe Illustrator 26.0.1, SVG Export Plug-In . SVG Version: 6.00 Build 0)  -->
<svg version="1.1" id="Слой_1" xmlns="http://www.w3.org/2000/svg" xmlns:xlink="http://www.w3.org/1999/xlink" x="0px" y="0px"
	 viewBox="0 0 500 500" style="enable-background:new 0 0 500 500;" xml:space="preserve">
<g>
	<path class="st0" d="M246.7,47.7c53.4,0,103.6,20.8,141.4,58.6c37.8,37.8,58.6,88,58.6,141.4c0,53.4-20.8,103.6-58.6,141.4
		c-37.8,37.8-88,58.6-141.4,58.6S143,426.9,105.2,389.1c-37.8-37.8-58.6-88-58.6-141.4s20.8-103.6,58.6-141.4
		C143,68.5,193.2,47.7,246.7,47.7 M246.7-2.3c-138.1,0-250,111.9-250,250c0,138.1,111.9,250,250,250c138.1,0,250-111.9,250-250
		C496.7,109.6,384.7-2.3,246.7-2.3L246.7-2.3z"/>
</g>
<g>
	<circle cx="246.7" cy="371.6" r="21.3"/>
	<path d="M246.7,102.6c-46.7,0-84.6,37.7-85,84.3c-0.1,11.3,8.5,21.1,19.7,21.9c12.4,0.9,22.8-9,22.8-21.2h0.2
		c-0.1-1.2-0.2-2.5-0.2-3.7c0-24.4,20.5-43.9,45.2-42.4c21.2,1.3,38.4,18.5,39.7,39.7c1.2,19.1-9.6,37.3-26.7,42.2
		c-38.6,8.6-37,63.3-37,63.3c0,11.7,9.5,21.3,21.3,21.3s21.3-9.5,21.3-21.3c0-14.3,4.3-20.6,7.6-23.3c30.7-16.2,56.1-45,56.1-75.7
		C331.7,140.6,293.6,102.6,246.7,102.6z"/>
	<path d="M262.4,223.3l-1.6,0.4C261.5,223.5,261.9,223.5,262.4,223.3z"/>
</g>
</svg>
