<?xml version="1.0" encoding="utf-8"?>
<!-- Generator: Adobe Illustrator 26.0.1, SVG Export Plug-In . SVG Version: 6.00 Build 0)  -->
<svg version="1.1" id="Слой_1" xmlns="http://www.w3.org/2000/svg" xmlns:xlink="http://www.w3.org/1999/xlink" x="0px" y="0px"
	 viewBox="0 0 120 120" style="enable-background:new 0 0 120 120;" xml:space="preserve">
<style type="text/css">
	.st0{fill:#00B2E3;}
	.st1{fill:#9D1D96;}
	.st2{fill:#302C29;}
</style>
<g>
	<g>
		<path class="st0" d="M38.2,11.4c-1.2,0-2.3-0.7-2.8-1.9c-0.6-1.5,0.2-3.2,1.7-3.8l15.1-5.6c1.5-0.6,3.2,0.2,3.8,1.7
			c0.6,1.5-0.2,3.2-1.7,3.8l-15.1,5.6C38.9,11.4,38.5,11.4,38.2,11.4z"/>
		<path class="st0" d="M24.5,24.2c-1.2,0-2.3-0.7-2.8-1.9c-0.6-1.5,0.2-3.2,1.7-3.8L69.3,1.7c1.5-0.6,3.2,0.2,3.8,1.7
			c0.6,1.5-0.2,3.2-1.7,3.8L25.5,24.1C25.2,24.2,24.8,24.2,24.5,24.2z"/>
		<path class="st0" d="M19.1,34c-1.2,0-2.3-0.7-2.8-1.9c-0.6-1.5,0.2-3.2,1.7-3.8L79.7,5.7c1.5-0.6,3.2,0.2,3.8,1.7
			c0.6,1.5-0.2,3.2-1.7,3.8L20.1,33.8C19.8,33.9,19.4,34,19.1,34z"/>
		<path class="st0" d="M16.7,42.7c-1.2,0-2.3-0.7-2.8-1.9c-0.6-1.5,0.2-3.2,1.7-3.8l13.8-5.1c1.5-0.6,3.2,0.2,3.8,1.7
			c0.6,1.5-0.2,3.2-1.7,3.8l-13.8,5.1C17.4,42.6,17,42.7,16.7,42.7z"/>
		<path class="st0" d="M74.4,21.5c-1.2,0-2.3-0.7-2.8-1.9c-0.6-1.5,0.2-3.2,1.7-3.8l13.8-5.1c1.5-0.6,3.2,0.2,3.8,1.7
			c0.6,1.5-0.2,3.2-1.7,3.8l-13.8,5.1C75.1,21.4,74.7,21.5,74.4,21.5z"/>
		<path class="st0" d="M16,50.7c-1.2,0-2.3-0.7-2.8-1.9c-0.6-1.5,0.2-3.2,1.7-3.8l12-4.4c1.5-0.6,3.2,0.2,3.8,1.7
			c0.6,1.5-0.2,3.2-1.7,3.8l-12,4.4C16.7,50.6,16.4,50.7,16,50.7z"/>
		<path class="st0" d="M81.8,26.5c-1.2,0-2.3-0.7-2.8-1.9c-0.6-1.5,0.2-3.2,1.7-3.8l12.1-4.5c1.5-0.6,3.2,0.2,3.8,1.7
			c0.6,1.5-0.2,3.2-1.7,3.8l-12.1,4.5C82.4,26.5,82.1,26.5,81.8,26.5z"/>
		<path class="st0" d="M17,58.1c-1.2,0-2.3-0.7-2.8-1.9c-0.6-1.5,0.2-3.2,1.7-3.8l11.1-4.1c1.5-0.6,3.2,0.2,3.8,1.7
			c0.6,1.5-0.2,3.2-1.7,3.8L18,57.9C17.7,58,17.3,58.1,17,58.1z"/>
		<path class="st0" d="M86.7,32.5c-1.2,0-2.3-0.7-2.8-1.9c-0.6-1.5,0.2-3.2,1.7-3.8l11.4-4.2c1.5-0.6,3.2,0.2,3.8,1.7
			c0.6,1.5-0.2,3.2-1.7,3.8l-11.4,4.2C87.4,32.4,87.1,32.5,86.7,32.5z"/>
		<path class="st0" d="M19.2,65.1c-1.2,0-2.3-0.7-2.8-1.9c-0.6-1.5,0.2-3.2,1.7-3.8l10.6-3.9c1.5-0.6,3.2,0.2,3.8,1.7
			c0.6,1.5-0.2,3.2-1.7,3.8l-10.6,3.9C19.9,65,19.5,65.1,19.2,65.1z"/>
		<path class="st0" d="M90.1,39c-1.2,0-2.3-0.7-2.8-1.9c-0.6-1.5,0.2-3.2,1.7-3.8l11.2-4.1c1.5-0.6,3.2,0.2,3.8,1.7
			c0.6,1.5-0.2,3.2-1.7,3.8l-11.2,4.1C90.8,38.9,90.5,39,90.1,39z"/>
		<path class="st0" d="M22.1,71.8c-1.2,0-2.3-0.7-2.8-1.9c-0.6-1.5,0.2-3.2,1.7-3.8l11-4c1.5-0.6,3.2,0.2,3.8,1.7
			c0.6,1.5-0.2,3.2-1.7,3.8l-11,4C22.8,71.7,22.4,71.8,22.1,71.8z"/>
		<path class="st0" d="M91.9,46.1c-1.2,0-2.3-0.7-2.8-1.9c-0.6-1.5,0.2-3.2,1.7-3.8l11.4-4.2c1.5-0.6,3.2,0.2,3.8,1.7
			c0.6,1.5-0.2,3.2-1.7,3.8L92.9,46C92.6,46.1,92.2,46.1,91.9,46.1z"/>
		<path class="st1" d="M25.6,78.3c-1.2,0-2.3-0.7-2.8-1.9c-0.6-1.5,0.2-3.2,1.7-3.8L37.1,68c1.5-0.6,3.2,0.2,3.8,1.7
			c0.6,1.5-0.2,3.2-1.7,3.8l-12.5,4.6C26.3,78.2,25.9,78.3,25.6,78.3z"/>
		<path class="st1" d="M91.9,53.9c-1.2,0-2.3-0.7-2.8-1.9c-0.6-1.5,0.2-3.2,1.7-3.8l12.1-4.4c1.5-0.6,3.2,0.2,3.8,1.7
			c0.6,1.5-0.2,3.2-1.7,3.8l-12.1,4.4C92.6,53.9,92.2,53.9,91.9,53.9z"/>
		<path class="st1" d="M103.1,62.4c-0.6-1.5-2.2-2.3-3.8-1.7L86,65.6c-1.3,0.7-1.9,2.2-1.4,3.6c0.4,1.2,1.6,1.9,2.8,1.9
			c0.3,0,0.7-0.1,1-0.2l13.4-4.9C103,65.3,103.6,63.8,103.1,62.4z"/>
		<path class="st1" d="M34,90.8c-1.2,0-2.3-0.7-2.8-1.9c-0.6-1.5,0.2-3.2,1.7-3.8l15.9-5.8c1.5-0.6,3.2,0.2,3.8,1.7
			c0.6,1.5-0.2,3.2-1.7,3.8L35,90.6C34.7,90.7,34.4,90.8,34,90.8z"/>
		<path class="st1" d="M106,53.6c-0.6-1.5-2.2-2.3-3.8-1.7l-12.7,4.7c-1.3,0.7-1.9,2.2-1.4,3.6c0.4,1.2,1.6,1.9,2.8,1.9
			c0.3,0,0.7-0.1,1-0.2l12.7-4.7C105.8,56.5,106.5,55,106,53.6z"/>
		<path class="st1" d="M44.6,76.1c-0.6-1.5-2.2-2.3-3.8-1.7l-12.7,4.7c-1.3,0.7-1.9,2.2-1.4,3.6c0.4,1.2,1.6,1.9,2.8,1.9
			c0.3,0,0.7-0.1,1-0.2l12.7-4.7C44.5,79.1,45.2,77.5,44.6,76.1z"/>
		<path class="st1" d="M38.7,96.8c-1.2,0-2.3-0.7-2.8-1.9c-0.6-1.5,0.2-3.2,1.7-3.8l57.1-21c1.5-0.6,3.2,0.2,3.8,1.7
			c0.6,1.5-0.2,3.2-1.7,3.8l-57.1,21C39.4,96.7,39.1,96.8,38.7,96.8z"/>
		<path class="st1" d="M43.8,102.7c-1.2,0-2.3-0.7-2.8-1.9c-0.6-1.5,0.2-3.2,1.7-3.8l45.8-16.8c1.5-0.6,3.2,0.2,3.8,1.7
			c0.6,1.5-0.2,3.2-1.7,3.8l-45.8,16.8C44.5,102.6,44.1,102.7,43.8,102.7z"/>
		<path class="st1" d="M49,108.6c-1.2,0-2.3-0.7-2.8-1.9c-0.6-1.5,0.2-3.2,1.7-3.8L80.4,91c1.5-0.6,3.2,0.2,3.8,1.7
			c0.6,1.5-0.2,3.2-1.7,3.8L50,108.4C49.6,108.5,49.3,108.6,49,108.6z"/>
		<path class="st1" d="M54.5,114.3c-1.2,0-2.3-0.7-2.8-1.9c-0.6-1.5,0.2-3.2,1.7-3.8l16.9-6.2c1.5-0.6,3.2,0.2,3.8,1.7
			c0.6,1.5-0.2,3.2-1.7,3.8l-16.9,6.2C55.2,114.3,54.8,114.3,54.5,114.3z"/>
		<path class="st1" d="M60.3,120c-1.2,0-2.3-0.7-2.8-1.9c-0.6-1.5,0.2-3.2,1.7-3.8l0.2-0.1c1.5-0.6,3.2,0.2,3.8,1.7
			c0.6,1.5-0.2,3.2-1.7,3.8l-0.2,0.1C61,119.9,60.6,120,60.3,120z"/>
	</g>
	<g>
		<path class="st2" d="M54,26.2C54,26.2,54.1,26.2,54,26.2C54.1,26.2,54,26.2,54,26.2z"/>
		<path class="st2" d="M51.6,27.1c0.4-0.2,0.9-0.3,1.3-0.5C52.5,26.7,52.1,26.9,51.6,27.1z"/>
		<path class="st2" d="M53.5,26.4c-0.1,0-0.3,0.1-0.4,0.1C53.2,26.5,53.4,26.4,53.5,26.4C53.5,26.4,53.5,26.4,53.5,26.4z"/>
		<path class="st2" d="M51.1,27.3c0.1,0,0.2-0.1,0.3-0.1C51.3,27.2,51.2,27.3,51.1,27.3z"/>
		<path class="st0" d="M77.1,36.3c0.9,1.1,1,3.1-0.3,3.8c-2.3,1.3-5.8,1.4-9.3-0.1c-0.6-0.2-1.2,0-1.5,0.6l-0.9,1.7
			c-0.2,0.4-0.1,0.9,0.2,1.2c2,1.9,2.6,5,1.3,7.7C65,54.3,61,55.6,57.8,54c-2.5-1.3-3.9-4-3.6-6.7c0.1-0.5-0.2-1-0.7-1.2l-1.7-0.9
			c-0.6-0.3-1.3-0.1-1.6,0.5c-1.9,3.2-4.8,5.3-7.4,5.6c-1.4,0.1-2.6-1.5-2.5-2.9c0.1-2.3,0.7-4.6,1.5-6.7c0.3-0.7,0-1.4-0.7-1.8
			l-1-0.5c-0.6-0.3-1.4,0-1.6,0.6c-2.3,5.4-2.7,11.5-0.7,17.5c4.3,12.7,18,19.6,30.8,15.5c13-4.2,20.1-18.1,15.8-31.1
			c-2-6-6.1-10.8-11.3-13.7c-0.4-0.2-1-0.1-1.2,0.4l-0.8,1.6c-0.3,0.5-0.1,1.1,0.4,1.4C73.7,32.9,75.5,34.4,77.1,36.3z M81.6,53.6
			c-1.4,7.2-6.5,13.5-13.9,15.9C60.2,71.9,52.4,70,47,65c-1-1-1.6-2.2-1.3-2.6c0.2-0.2,0.5-0.4,0.8-0.5c1.6-0.6,3.4-1,5.3-1.5
			c3.8-0.8,7.7-1.9,11.8-3.2c4.1-1.3,7.8-2.9,11.4-4.5c1.8-0.8,3.5-1.5,5.1-2c0.3-0.1,0.6-0.1,0.9-0.1
			C81.6,50.8,81.9,52.2,81.6,53.6z"/>
		<path class="st1" d="M52,41.1c-0.2,0.2-0.3,0.3-0.5,0.5c-0.2,0.2-0.1,0.6,0.2,0.8l0,0l2.2,1.1c0.2,0.1,0.4,0.1,0.6-0.1
			c2.2-2.2,5.3-3.2,8.3-2.8c0.2,0,0.4-0.1,0.5-0.3l1.1-2.2l0,0c0.1-0.3,0-0.7-0.4-0.7c-0.3-0.1-0.5-0.1-0.8-0.1
			C59.2,36.7,55,38.1,52,41.1z"/>
		<path class="st1" d="M51.2,34.3c-1.8,1.1-3.4,2.5-4.8,4.2c-0.4,0.5-0.2,1.1,0.3,1.4l1.4,0.7c0.4,0.2,0.9,0.1,1.1-0.2
			c0.9-1,1.9-1.9,2.9-2.7c2.6-1.9,5.7-2.9,8.9-3c1.3,0,2.7,0.1,4,0.4c0.4,0.1,0.9-0.1,1-0.5l0.7-1.4c0.3-0.5,0-1.2-0.6-1.3
			c-2.1-0.5-4.2-0.7-6.3-0.5C56.9,31.7,53.9,32.7,51.2,34.3z"/>
		<path class="st1" d="M43.5,37.7c5.6-7.8,15.6-11.1,24.7-8.2c0.3,0.1,0.6,0,0.8-0.3l0.9-1.9c0.2-0.4,0-0.8-0.4-0.9c0,0-0.1,0-0.1,0
			c-0.3-0.1-0.6-0.2-0.9-0.3c-0.1,0-0.1,0-0.2-0.1c-0.3-0.1-0.6-0.2-0.9-0.2c-0.1,0-0.1,0-0.2,0c-0.3-0.1-0.6-0.1-0.9-0.2
			c-0.1,0-0.1,0-0.2,0c-0.3-0.1-0.6-0.1-0.9-0.1c-0.1,0-0.1,0-0.2,0c-0.3,0-0.6-0.1-0.9-0.1c-0.1,0-0.1,0-0.2,0
			c-0.3,0-0.6-0.1-0.9-0.1c-0.1,0-0.1,0-0.2,0c-0.3,0-0.6,0-0.9,0c-0.1,0-0.1,0-0.2,0c-0.3,0-0.6,0-0.9,0c0,0-0.1,0-0.1,0
			c-0.3,0-0.6,0-1,0c0,0-0.1,0-0.1,0c-0.3,0-0.7,0.1-1,0.1c0,0,0,0,0,0c-1.6,0.2-3.1,0.5-4.6,0.9c0,0-0.1,0-0.1,0
			c-0.1,0-0.2,0.1-0.3,0.1c0,0-0.1,0-0.1,0c-0.2,0.1-0.3,0.1-0.5,0.2c0,0-0.1,0-0.1,0c0,0,0,0,0,0c-0.4,0.2-0.9,0.3-1.3,0.5
			c-0.1,0-0.2,0.1-0.3,0.1c-0.1,0-0.2,0.1-0.3,0.1c-1.2,0.5-2.3,1.1-3.4,1.8c0,0,0,0,0,0c-0.3,0.2-0.6,0.4-0.8,0.6
			c0,0-0.1,0-0.1,0.1c-0.3,0.2-0.5,0.4-0.8,0.6c0,0-0.1,0.1-0.1,0.1c-0.3,0.2-0.5,0.4-0.7,0.6c0,0-0.1,0.1-0.1,0.1
			c-0.2,0.2-0.5,0.4-0.7,0.6c0,0-0.1,0.1-0.1,0.1c-0.2,0.2-0.5,0.4-0.7,0.7c0,0-0.1,0.1-0.1,0.1c-0.2,0.2-0.4,0.4-0.7,0.7
			c0,0-0.1,0.1-0.1,0.1c-0.2,0.2-0.4,0.5-0.6,0.7c0,0-0.1,0.1-0.1,0.1c-0.2,0.2-0.4,0.5-0.6,0.8c0,0-0.1,0.1-0.1,0.1
			c-0.2,0.3-0.4,0.5-0.6,0.8c0,0,0,0,0,0.1c-0.2,0.3-0.1,0.8,0.2,1l1.9,0.9C43,38,43.3,38,43.5,37.7z"/>
		<path class="st1" d="M62.7,44.1c-0.3-0.1-0.5-0.2-0.8-0.3c-0.1,0-0.2-0.1-0.3-0.1c-1.6-0.3-3.2,0.2-4.3,1.5
			c-0.1,0.1-0.1,0.2-0.2,0.3c-0.1,0.2-0.3,0.4-0.4,0.6c-0.2,0.5-0.4,0.9-0.4,1.4c-0.2,1.8,0.7,3.6,2.4,4.5c2.2,1.1,4.8,0.2,5.9-2
			c0.9-1.8,0.5-3.8-0.9-5.1C63.5,44.6,63.1,44.4,62.7,44.1z"/>
	</g>
</g>
</svg>
