<?xml version="1.0" encoding="utf-8"?>
<!-- Generator: Adobe Illustrator 26.0.1, SVG Export Plug-In . SVG Version: 6.00 Build 0)  -->
<svg version="1.1" id="Слой_1" xmlns="http://www.w3.org/2000/svg" xmlns:xlink="http://www.w3.org/1999/xlink" x="0px" y="0px"
	 viewBox="0 0 144 144" style="enable-background:new 0 0 144 144;" xml:space="preserve">
<style type="text/css">
	.st0{fill:#42395F;}
	.st1{fill:#00B2E3;}
	.st2{fill:#FFFFFF;}
	.st3{fill:#302C29;}
</style>
<path class="st0" d="M72,144L72,144c-39.8,0-72-32.2-72-72v0C0,32.2,32.2,0,72,0h0c39.8,0,72,32.2,72,72v0
	C144,111.8,111.8,144,72,144z"/>
<g>
	<g>
		<g>
			<path class="st1" d="M54.6,33.1c-1,0-1.9-0.6-2.2-1.5c-0.4-1.2,0.2-2.6,1.4-3l12.1-4.4c1.2-0.4,2.6,0.2,3,1.4
				c0.4,1.2-0.2,2.6-1.4,3L55.4,33C55.1,33.1,54.8,33.1,54.6,33.1z"/>
		</g>
		<g>
			<path class="st1" d="M43.6,43.4c-1,0-1.9-0.6-2.2-1.5c-0.4-1.2,0.2-2.6,1.4-3l36.7-13.5c1.2-0.4,2.6,0.2,3,1.4
				c0.4,1.2-0.2,2.6-1.4,3L44.4,43.2C44.1,43.3,43.9,43.4,43.6,43.4z"/>
		</g>
		<g>
			<path class="st1" d="M39.3,51.2c-1,0-1.9-0.6-2.2-1.5c-0.4-1.2,0.2-2.6,1.4-3l49.3-18.1c1.2-0.4,2.6,0.2,3,1.4
				c0.4,1.2-0.2,2.6-1.4,3L40.1,51.1C39.8,51.2,39.5,51.2,39.3,51.2z"/>
		</g>
		<g>
			<path class="st1" d="M37.4,58.1c-1,0-1.9-0.6-2.2-1.5c-0.4-1.2,0.2-2.6,1.4-3l11.1-4.1c1.2-0.4,2.6,0.2,3,1.4
				c0.4,1.2-0.2,2.6-1.4,3L38.2,58C37.9,58.1,37.6,58.1,37.4,58.1z"/>
		</g>
		<g>
			<path class="st1" d="M83.5,41.2c-1,0-1.9-0.6-2.2-1.5c-0.4-1.2,0.2-2.6,1.4-3l11.1-4.1c1.2-0.4,2.6,0.2,3,1.4
				c0.4,1.2-0.2,2.6-1.4,3L84.3,41C84.1,41.1,83.8,41.2,83.5,41.2z"/>
		</g>
		<g>
			<path class="st1" d="M36.8,64.5c-1,0-1.9-0.6-2.2-1.5c-0.4-1.2,0.2-2.6,1.4-3l9.6-3.5c1.2-0.4,2.6,0.2,3,1.4
				c0.4,1.2-0.2,2.6-1.4,3l-9.6,3.5C37.4,64.5,37.1,64.5,36.8,64.5z"/>
		</g>
		<g>
			<path class="st1" d="M89.4,45.2c-1,0-1.9-0.6-2.2-1.5c-0.4-1.2,0.2-2.6,1.4-3l9.7-3.6c1.2-0.4,2.6,0.2,3,1.4
				c0.4,1.2-0.2,2.6-1.4,3l-9.7,3.6C90,45.2,89.7,45.2,89.4,45.2z"/>
		</g>
		<g>
			<path class="st1" d="M37.6,70.5c-1,0-1.9-0.6-2.2-1.5c-0.4-1.2,0.2-2.6,1.4-3l8.9-3.3c1.2-0.4,2.6,0.2,3,1.4
				c0.4,1.2-0.2,2.6-1.4,3l-8.9,3.3C38.2,70.4,37.9,70.5,37.6,70.5z"/>
		</g>
		<g>
			<path class="st1" d="M93.4,50c-1,0-1.9-0.6-2.2-1.5c-0.4-1.2,0.2-2.6,1.4-3l9.1-3.4c1.2-0.4,2.6,0.2,3,1.4c0.4,1.2-0.2,2.6-1.4,3
				l-9.1,3.4C93.9,49.9,93.6,50,93.4,50z"/>
		</g>
		<g>
			<path class="st1" d="M39.3,76.1c-1,0-1.9-0.6-2.2-1.5c-0.4-1.2,0.2-2.6,1.4-3l8.5-3.1c1.2-0.4,2.6,0.2,3,1.4
				c0.4,1.2-0.2,2.6-1.4,3l-8.5,3.1C39.9,76,39.6,76.1,39.3,76.1z"/>
		</g>
		<g>
			<path class="st1" d="M96.1,55.2c-1,0-1.9-0.6-2.2-1.5c-0.4-1.2,0.2-2.6,1.4-3l9-3.3c1.2-0.4,2.6,0.2,3,1.4c0.4,1.2-0.2,2.6-1.4,3
				l-9,3.3C96.7,55.2,96.4,55.2,96.1,55.2z"/>
		</g>
		<g>
			<path class="st1" d="M41.7,81.4c-1,0-1.9-0.6-2.2-1.5c-0.4-1.2,0.2-2.6,1.4-3l8.8-3.2c1.2-0.4,2.6,0.2,3,1.4
				c0.4,1.2-0.2,2.6-1.4,3l-8.8,3.2C42.2,81.4,41.9,81.4,41.7,81.4z"/>
		</g>
		<g>
			<path class="st1" d="M97.5,60.9c-1,0-1.9-0.6-2.2-1.5c-0.4-1.2,0.2-2.6,1.4-3l9.1-3.4c1.2-0.4,2.6,0.2,3,1.4
				c0.4,1.2-0.2,2.6-1.4,3l-9.1,3.4C98,60.9,97.8,60.9,97.5,60.9z"/>
		</g>
		<g>
			<path class="st2" d="M44.5,86.6c-1,0-1.9-0.6-2.2-1.5c-0.4-1.2,0.2-2.6,1.4-3l10-3.7c1.2-0.4,2.6,0.2,3,1.4
				c0.4,1.2-0.2,2.6-1.4,3l-10,3.7C45,86.6,44.8,86.6,44.5,86.6z"/>
		</g>
		<g>
			<path class="st2" d="M97.5,67.1c-1,0-1.9-0.6-2.2-1.5c-0.4-1.2,0.2-2.6,1.4-3l9.7-3.6c1.2-0.4,2.6,0.2,3,1.4
				c0.4,1.2-0.2,2.6-1.4,3L98.3,67C98,67.1,97.8,67.1,97.5,67.1z"/>
		</g>
		<g>
			<path class="st2" d="M106.5,73.9c-0.4-1.2-1.8-1.8-3-1.4l-10.7,3.9c-1,0.5-1.5,1.8-1.1,2.9c0.3,0.9,1.2,1.5,2.2,1.5
				c0.3,0,0.5,0,0.8-0.1l10.7-3.9C106.4,76.2,106.9,75,106.5,73.9z"/>
		</g>
		<g>
			<path class="st2" d="M51.2,96.6c-1,0-1.9-0.6-2.2-1.5c-0.4-1.2,0.2-2.6,1.4-3l12.7-4.7c1.2-0.4,2.6,0.2,3,1.4
				c0.4,1.2-0.2,2.6-1.4,3L52,96.5C51.8,96.6,51.5,96.6,51.2,96.6z"/>
		</g>
		<g>
			<path class="st2" d="M108.8,66.9c-0.4-1.2-1.8-1.8-3-1.4l-10.1,3.7c-1,0.5-1.5,1.8-1.1,2.9c0.3,0.9,1.2,1.5,2.2,1.5
				c0.3,0,0.5,0,0.8-0.1l10.1-3.7C108.7,69.2,109.2,68,108.8,66.9z"/>
		</g>
		<g>
			<path class="st2" d="M59.7,84.9c-0.4-1.2-1.8-1.8-3-1.4l-10.1,3.7c-1,0.5-1.5,1.8-1.1,2.9c0.3,0.9,1.2,1.5,2.2,1.5
				c0.3,0,0.5,0,0.8-0.1l10.1-3.7C59.6,87.3,60.1,86,59.7,84.9z"/>
		</g>
		<g>
			<path class="st2" d="M55,101.4c-1,0-1.9-0.6-2.2-1.5c-0.4-1.2,0.2-2.6,1.4-3l45.7-16.8c1.2-0.4,2.6,0.2,3,1.4
				c0.4,1.2-0.2,2.6-1.4,3l-45.7,16.8C55.5,101.4,55.3,101.4,55,101.4z"/>
		</g>
		<g>
			<path class="st2" d="M59,106.2c-1,0-1.9-0.6-2.2-1.5c-0.4-1.2,0.2-2.6,1.4-3l36.6-13.5c1.2-0.4,2.6,0.2,3,1.4
				c0.4,1.2-0.2,2.6-1.4,3L59.8,106C59.6,106.1,59.3,106.2,59,106.2z"/>
		</g>
		<g>
			<path class="st2" d="M63.2,110.9c-1,0-1.9-0.6-2.2-1.5c-0.4-1.2,0.2-2.6,1.4-3l25.9-9.5c1.2-0.4,2.6,0.2,3,1.4
				c0.4,1.2-0.2,2.6-1.4,3L64,110.7C63.7,110.8,63.4,110.9,63.2,110.9z"/>
		</g>
		<g>
			<path class="st2" d="M67.6,115.4c-1,0-1.9-0.6-2.2-1.5c-0.4-1.2,0.2-2.6,1.4-3l13.5-5c1.2-0.4,2.6,0.2,3,1.4
				c0.4,1.2-0.2,2.6-1.4,3l-13.5,5C68.1,115.4,67.9,115.4,67.6,115.4z"/>
		</g>
		<g>
			<path class="st2" d="M72.2,120c-1,0-1.9-0.6-2.2-1.5c-0.4-1.2,0.2-2.6,1.4-3l0.2-0.1c1.2-0.4,2.6,0.2,3,1.4
				c0.4,1.2-0.2,2.6-1.4,3l-0.2,0.1C72.8,120,72.5,120,72.2,120z"/>
		</g>
	</g>
	<g>
		<g>
			<path class="st3" d="M67.2,45C67.2,45,67.2,45,67.2,45C67.2,45,67.2,45,67.2,45z"/>
		</g>
		<g>
			<path class="st3" d="M65.3,45.7c0.3-0.1,0.7-0.3,1-0.4C66,45.4,65.6,45.5,65.3,45.7z"/>
		</g>
		<g>
			<path class="st3" d="M66.8,45.1c-0.1,0-0.2,0.1-0.3,0.1C66.6,45.2,66.7,45.1,66.8,45.1C66.8,45.1,66.8,45.1,66.8,45.1z"/>
		</g>
		<g>
			<path class="st3" d="M64.8,45.8c0.1,0,0.2-0.1,0.2-0.1C65,45.8,64.9,45.8,64.8,45.8z"/>
		</g>
		<g>
			<path class="st1" d="M85.7,53c0.7,0.9,0.8,2.5-0.2,3.1c-1.8,1.1-4.6,1.1-7.4-0.1c-0.5-0.2-1,0-1.2,0.4l-0.7,1.4
				c-0.2,0.3-0.1,0.7,0.2,0.9c1.6,1.6,2.1,4,1,6.1c-1.3,2.6-4.5,3.7-7.1,2.3c-2-1-3.1-3.2-2.9-5.3c0-0.4-0.2-0.8-0.6-1l-1.4-0.7
				c-0.5-0.2-1-0.1-1.3,0.4c-1.5,2.6-3.8,4.3-5.9,4.5c-1.1,0.1-2.1-1.2-2-2.3c0.1-1.8,0.5-3.6,1.2-5.3c0.2-0.5,0-1.2-0.5-1.4
				l-0.8-0.4c-0.5-0.2-1.1,0-1.3,0.5c-1.8,4.3-2.2,9.2-0.6,14c3.4,10.1,14.4,15.7,24.6,12.4c10.4-3.3,16-14.5,12.6-24.8
				c-1.6-4.8-4.9-8.6-9-11c-0.3-0.2-0.8-0.1-1,0.3l-0.6,1.2c-0.2,0.4-0.1,0.9,0.3,1.1C82.9,50.3,84.4,51.5,85.7,53z M89.3,66.9
				c-1.1,5.8-5.2,10.8-11.2,12.7c-5.9,2-12.2,0.4-16.5-3.6c-0.8-0.8-1.3-1.8-1-2.1c0.2-0.2,0.4-0.3,0.6-0.4c1.3-0.5,2.8-0.8,4.3-1.2
				c3.1-0.7,6.2-1.5,9.5-2.6c3.2-1.1,6.3-2.3,9.1-3.6c1.4-0.6,2.8-1.2,4.1-1.6c0.3-0.1,0.5-0.1,0.7-0.1
				C89.3,64.6,89.5,65.8,89.3,66.9z"/>
		</g>
		<g>
			<path class="st2" d="M65.6,56.9c-0.1,0.1-0.3,0.3-0.4,0.4c-0.2,0.2-0.1,0.5,0.1,0.6l0,0l1.8,0.9c0.2,0.1,0.3,0.1,0.5-0.1
				c1.8-1.7,4.2-2.5,6.7-2.2c0.2,0,0.3-0.1,0.4-0.2l0.9-1.7l0,0c0.1-0.2,0-0.5-0.3-0.6c-0.2,0-0.4-0.1-0.6-0.1
				C71.4,53.4,68,54.5,65.6,56.9z"/>
		</g>
		<g>
			<path class="st2" d="M65,51.4c-1.4,0.9-2.7,2-3.8,3.4c-0.3,0.4-0.2,0.9,0.2,1.1l1.1,0.6c0.3,0.2,0.7,0.1,0.9-0.2
				c0.7-0.8,1.5-1.6,2.3-2.2c2.1-1.5,4.6-2.3,7.1-2.4c1.1,0,2.1,0.1,3.2,0.3c0.3,0.1,0.7-0.1,0.8-0.4l0.6-1.1c0.2-0.4,0-0.9-0.5-1
				c-1.7-0.4-3.4-0.6-5.1-0.4C69.5,49.3,67.1,50.1,65,51.4z"/>
		</g>
		<g>
			<path class="st2" d="M58.8,54.2c4.4-6.2,12.5-8.9,19.7-6.6c0.2,0.1,0.5,0,0.6-0.3l0.8-1.5c0.1-0.3,0-0.6-0.3-0.7c0,0-0.1,0-0.1,0
				c-0.2-0.1-0.5-0.1-0.7-0.2c-0.1,0-0.1,0-0.2,0c-0.2-0.1-0.5-0.1-0.7-0.2c-0.1,0-0.1,0-0.2,0c-0.2-0.1-0.5-0.1-0.7-0.1
				c-0.1,0-0.1,0-0.2,0c-0.2,0-0.5-0.1-0.7-0.1c-0.1,0-0.1,0-0.2,0c-0.2,0-0.5-0.1-0.7-0.1c-0.1,0-0.1,0-0.2,0c-0.2,0-0.5,0-0.7-0.1
				c-0.1,0-0.1,0-0.2,0c-0.2,0-0.5,0-0.7,0c0,0-0.1,0-0.1,0c-0.2,0-0.5,0-0.7,0c0,0-0.1,0-0.1,0c-0.3,0-0.5,0-0.8,0c0,0-0.1,0-0.1,0
				c-0.3,0-0.5,0-0.8,0.1c0,0,0,0,0,0c-1.2,0.1-2.5,0.4-3.7,0.8c0,0,0,0-0.1,0c-0.1,0-0.2,0.1-0.3,0.1c0,0-0.1,0-0.1,0
				c-0.1,0-0.3,0.1-0.4,0.1c0,0-0.1,0-0.1,0c0,0,0,0,0,0c-0.3,0.1-0.7,0.3-1,0.4c-0.1,0-0.1,0.1-0.2,0.1c-0.1,0-0.2,0.1-0.2,0.1
				c-0.9,0.4-1.8,0.9-2.7,1.5c0,0,0,0,0,0c-0.2,0.1-0.4,0.3-0.7,0.4c0,0,0,0-0.1,0c-0.2,0.1-0.4,0.3-0.6,0.5c0,0-0.1,0-0.1,0.1
				c-0.2,0.2-0.4,0.3-0.6,0.5c0,0-0.1,0-0.1,0.1c-0.2,0.2-0.4,0.3-0.6,0.5c0,0-0.1,0.1-0.1,0.1c-0.2,0.2-0.4,0.3-0.5,0.5
				c0,0-0.1,0.1-0.1,0.1c-0.2,0.2-0.4,0.4-0.5,0.5c0,0-0.1,0.1-0.1,0.1c-0.2,0.2-0.3,0.4-0.5,0.6c0,0-0.1,0.1-0.1,0.1
				c-0.2,0.2-0.3,0.4-0.5,0.6c0,0,0,0.1-0.1,0.1c-0.2,0.2-0.3,0.4-0.5,0.6c0,0,0,0,0,0.1c-0.2,0.3-0.1,0.6,0.2,0.8l1.5,0.8
				C58.4,54.4,58.6,54.4,58.8,54.2z"/>
		</g>
		<g>
			<path class="st2" d="M74.2,59.3c-0.2-0.1-0.4-0.2-0.6-0.2c-0.1,0-0.2,0-0.3-0.1c-1.3-0.3-2.6,0.2-3.4,1.2
				c-0.1,0.1-0.1,0.1-0.2,0.2c-0.1,0.1-0.2,0.3-0.3,0.5c-0.2,0.4-0.3,0.8-0.3,1.1c-0.2,1.4,0.5,2.9,1.9,3.6c1.7,0.9,3.9,0.2,4.7-1.6
				c0.7-1.4,0.4-3.1-0.7-4.1C74.8,59.7,74.5,59.5,74.2,59.3z"/>
		</g>
	</g>
</g>
</svg>
