<?xml version="1.0" encoding="utf-8"?>
<!-- Generator: Adobe Illustrator 26.0.1, SVG Export Plug-In . SVG Version: 6.00 Build 0)  -->
<svg version="1.1" id="Слой_1" xmlns="http://www.w3.org/2000/svg" xmlns:xlink="http://www.w3.org/1999/xlink" x="0px" y="0px"
	 viewBox="0 0 800 800" style="enable-background:new 0 0 800 800;" xml:space="preserve">
<style type="text/css">
	.st0{fill-rule:evenodd;clip-rule:evenodd;}
</style>
<g>
	<path class="st0" d="M400,181.8c-80.3,0-145.5,65.1-145.5,145.5c0,80.3,65.1,145.5,145.5,145.5c80.3,0,145.5-65.1,145.5-145.5
		C545.5,246.9,480.3,181.8,400,181.8z M400,400c-40.2,0-72.7-32.6-72.7-72.7c0-40.2,32.6-72.7,72.7-72.7s72.7,32.6,72.7,72.7
		C472.7,367.4,440.2,400,400,400z"/>
	<path class="st0" d="M631.7,98.1C570.4,35.4,487.1,0,400,0c-87.1,0-170.4,35.4-231.7,98.1C107,160.8,72.7,245.6,72.7,333.9
		c0,137.8,80.5,254,155.5,332.8c38,39.9,75.9,71.7,104.2,93.5c14.2,10.9,26.1,19.4,34.5,25.2c4.2,2.9,7.6,5.1,9.9,6.7l3.9,2.5
		c11.8,7.4,26.8,7.4,38.6,0l3.9-2.5c2.3-1.5,5.7-3.8,9.9-6.7c8.4-5.8,20.3-14.2,34.5-25.2c28.3-21.8,66.2-53.5,104.2-93.5
		c74.9-78.8,155.5-195,155.5-332.8C727.3,245.6,693,160.8,631.7,98.1z M519.1,616.6c-34.7,36.5-69.6,65.8-95.8,85.9
		c-8.9,6.9-16.8,12.6-23.3,17.2c-6.5-4.6-14.4-10.4-23.3-17.2c-26.2-20.1-61.1-49.4-95.8-85.9c-70.5-74.2-135.4-172.9-135.4-282.7
		c0-69.5,27-136,74.8-185C268.1,100,332.8,72.7,400,72.7s131.9,27.3,179.7,76.2c47.8,48.9,74.8,115.4,74.8,185
		C654.6,443.7,589.6,542.4,519.1,616.6z"/>
</g>
</svg>
