<?xml version="1.0" encoding="utf-8"?>
<!-- Generator: Adobe Illustrator 26.0.1, SVG Export Plug-In . SVG Version: 6.00 Build 0)  -->
<svg version="1.1" id="Слой_1" xmlns="http://www.w3.org/2000/svg" xmlns:xlink="http://www.w3.org/1999/xlink" x="0px" y="0px"
	 viewBox="0 0 50 41.2" style="enable-background:new 0 0 50 41.2;" xml:space="preserve">
<g>
	<path d="M30.6,18.2H2.4c-1.3,0-2.4,1.1-2.4,2.4S1.1,23,2.4,23h28.2c1.3,0,2.4-1.1,2.4-2.4S32,18.2,30.6,18.2z"/>
	<path d="M47.6,0H2.4C1.1,0,0,1.1,0,2.5s1.1,2.4,2.4,2.4h45.2c1.3,0,2.4-1.1,2.4-2.4S48.9,0,47.6,0z"/>
	<path d="M13.7,36.3H2.4c-1.3,0-2.4,1.1-2.4,2.4s1.1,2.4,2.4,2.4h11.3c1.3,0,2.4-1.1,2.4-2.4S15,36.3,13.7,36.3z"/>
</g>
</svg>
