<?xml version="1.0" encoding="utf-8"?>
<!-- Generator: Adobe Illustrator 26.0.1, SVG Export Plug-In . SVG Version: 6.00 Build 0)  -->
<svg version="1.1" id="Слой_1" xmlns="http://www.w3.org/2000/svg" xmlns:xlink="http://www.w3.org/1999/xlink" x="0px" y="0px"
	 viewBox="0 0 800 800" style="enable-background:new 0 0 800 800;" xml:space="preserve">
<g>
	<path d="M787.7,496.5c-16.4-16.4-43.1-16.4-59.5,0L673.7,551V315.8c0-23.3-18.9-42.1-42.1-42.1c-23.3,0-42.1,18.9-42.1,42.1V551
		L535,496.5c-16.4-16.4-43.1-16.4-59.5,0c-16.4,16.4-16.4,43.1,0,59.5l126.3,126.3c4.4,4.4,9.5,7.6,14.9,9.6
		c3.7,1.4,7.7,2.3,11.8,2.6c0,0,0.1,0,0.1,0c1,0.1,2,0.1,3,0.1s2,0,3-0.1c0,0,0.1,0,0.1,0c4.1-0.3,8.1-1.2,11.8-2.6
		c5.4-2,10.5-5.3,14.9-9.6l126.3-126.3C804.1,539.6,804.1,513,787.7,496.5z"/>
	<path d="M294.7,526.3H42.1C18.9,526.3,0,545.2,0,568.4c0,23.3,18.9,42.1,42.1,42.1h252.6c23.3,0,42.1-18.9,42.1-42.1
		C336.8,545.2,318,526.3,294.7,526.3z"/>
	<path d="M421.1,315.8H42.1C18.9,315.8,0,334.6,0,357.9S18.9,400,42.1,400h378.9c23.3,0,42.1-18.9,42.1-42.1
		S444.3,315.8,421.1,315.8z"/>
	<path d="M42.1,189.5h505.3c23.3,0,42.1-18.9,42.1-42.1s-18.9-42.1-42.1-42.1H42.1C18.9,105.3,0,124.1,0,147.4
		S18.9,189.5,42.1,189.5z"/>
</g>
</svg>
